<svg version="1.1" id="Layer_1" xmlns="http://www.w3.org/2000/svg" xmlns:xlink="http://www.w3.org/1999/xlink" x="0px" y="0px"
	 width="100%" viewBox="380 210 300 240" enable-background="new 0 0 1024 672" xml:space="preserve">
<path fill="#ffffff" opacity="1.000000" stroke="none" 
	d="
M425.956299,402.255737 
	C411.521027,394.014709 404.202362,382.043854 404.864777,365.601440 
	C404.976624,362.825867 403.904724,360.986969 401.944611,359.123566 
	C388.197021,346.054535 386.762756,323.094086 398.820221,308.727844 
	C400.462067,306.771667 401.048584,305.015594 400.823059,302.467529 
	C399.780334,290.686890 400.512756,278.766846 409.842560,270.505707 
	C416.949524,264.212830 420.855713,256.904419 424.463379,248.460999 
	C429.277344,237.194244 439.262634,231.219833 451.102386,228.660004 
	C454.482178,227.929291 457.025604,226.537781 459.528015,224.000275 
	C471.364044,211.998215 485.870605,210.156769 501.523285,214.072525 
	C505.177368,214.986664 507.242371,217.607315 507.422791,221.762283 
	C508.659454,250.238800 507.797119,278.725372 507.887817,307.206116 
	C507.896454,309.918915 508.314423,313.747711 503.829803,313.956543 
	C499.841187,314.142242 496.069397,310.602661 495.727173,306.680695 
	C495.712708,306.514923 495.725769,306.346436 495.706726,306.181427 
	C495.237366,302.111725 497.518188,296.941956 494.508148,294.208954 
	C491.582611,291.552734 486.507050,293.745422 482.386292,293.371460 
	C477.894348,292.963867 473.423035,292.567383 469.350433,290.443207 
	C466.399994,288.904327 464.629608,286.553375 465.811493,283.108215 
	C466.945190,279.803558 469.877319,279.010284 472.769196,279.853271 
	C478.773804,281.603668 484.833069,281.982025 491.021576,281.901978 
	C494.365845,281.858734 495.749603,280.771393 495.718933,277.227203 
	C495.580688,261.233734 495.586823,245.237793 495.719208,229.244217 
	C495.749359,225.597443 494.500397,224.303741 490.808105,224.209824 
	C483.417969,224.021851 476.514282,224.987885 470.733490,230.075333 
	C465.766632,234.446503 463.766205,240.018982 465.573975,246.281845 
	C467.348877,252.430847 472.582764,254.786789 478.511688,255.728668 
	C479.662048,255.911392 480.866974,255.865128 481.974915,256.178528 
	C485.348999,257.132935 487.758698,259.078583 487.191406,262.945557 
	C486.673279,266.477173 483.990051,267.939758 480.757904,268.102936 
	C469.703827,268.660858 457.634064,260.540466 453.556885,250.252502 
	C452.352722,247.214081 453.301086,243.951706 451.833405,240.332413 
	C444.994995,242.342819 439.636719,246.112289 436.177124,252.289307 
	C427.609528,267.586487 434.516205,287.810974 451.536133,296.739502 
	C458.682251,300.488281 466.355042,302.672363 474.606354,301.005859 
	C478.394562,300.240814 481.467529,301.009338 482.136322,305.274017 
	C482.763000,309.270294 480.436584,311.629517 476.664612,312.275970 
	C462.741852,314.662048 450.242676,310.897858 439.070099,302.712036 
	C430.814484,296.663330 424.737976,288.871582 422.375702,278.611420 
	C422.242645,278.033508 421.684906,277.553406 421.033295,276.602264 
	C415.982971,280.617432 413.679688,285.746368 413.263641,291.722534 
	C412.105164,308.363251 420.535034,319.667633 434.247650,327.420227 
	C445.887756,334.001068 458.572083,336.133972 471.879822,334.020660 
	C473.351013,333.786987 474.864288,333.759460 476.359070,333.745575 
	C479.469330,333.716644 481.425812,335.289917 482.001862,338.315765 
	C482.543793,341.162415 481.146454,343.299438 478.674652,344.381744 
	C476.578522,345.299591 474.239166,346.007385 471.970245,346.132080 
	C446.908020,347.509552 424.732819,341.575287 408.587067,320.676697 
	C408.216278,320.196808 407.591248,319.913330 407.104614,319.552917 
	C401.920380,325.160126 401.816742,337.450104 406.732361,345.339264 
	C413.024414,355.437500 422.895355,358.590942 433.971008,354.031281 
	C435.356934,353.460693 436.690063,352.744812 438.104919,352.265015 
	C441.049377,351.266510 443.827911,351.461731 445.537201,354.419373 
	C447.281952,357.438507 445.936920,359.993317 443.504272,361.848358 
	C437.252533,366.615601 429.944641,368.184479 422.322601,367.498871 
	C418.109955,367.119904 416.846619,368.360962 417.354065,372.339691 
	C418.800415,383.680115 431.032410,394.929504 442.423279,395.396454 
	C446.306091,395.555634 445.492126,392.759399 445.654663,390.584198 
	C446.648865,377.278625 452.321655,366.979248 464.846283,361.324066 
	C481.960724,353.596436 501.678802,361.933655 506.640564,378.946564 
	C507.952759,383.445831 507.927979,388.149231 507.944427,392.815552 
	C507.972656,400.812439 507.926971,408.812073 508.130585,416.804993 
	C508.289612,423.046478 505.454590,427.133179 500.048645,429.966309 
	C480.748779,440.080780 457.117523,431.824738 448.582428,411.795715 
	C447.363739,408.935760 445.939392,407.374451 442.464386,407.117035 
	C436.835236,406.700104 431.347473,405.145721 425.956299,402.255737 
M485.068787,422.631165 
	C487.318115,422.046021 489.580078,421.504944 491.813568,420.864563 
	C494.572968,420.073395 495.765411,418.304382 495.724060,415.319336 
	C495.592560,405.823700 495.853363,396.320282 495.603882,386.829285 
	C495.360748,377.579468 488.875397,370.990906 480.076294,370.297424 
	C472.385773,369.691254 466.160370,372.514587 462.075470,378.852386 
	C455.774445,388.628448 455.941406,399.111938 460.967133,409.286255 
	C465.617615,418.701019 473.728424,422.951324 485.068787,422.631165 
z"/>
<path fill="#ffffff" opacity="1.000000" stroke="none" 
	d="
M601.093689,265.299133 
	C598.417664,269.938019 594.295349,272.637634 590.691711,275.783356 
	C572.269531,291.864471 553.687378,307.762207 535.195007,323.763275 
	C532.253906,326.308228 529.376404,328.121399 525.361816,325.886536 
	C520.967285,323.440094 516.677612,321.536743 516.727844,315.073425 
	C516.959412,285.282837 516.815491,255.489334 516.822083,225.696869 
	C516.824036,217.013580 519.663635,213.540970 528.447144,212.794922 
	C543.506653,211.515793 556.522766,215.605225 565.318848,228.793823 
	C567.075989,231.428406 569.413269,231.834198 571.998901,232.396408 
	C585.319214,235.292786 594.769165,242.866425 599.850769,255.633224 
	C601.031250,258.598969 601.715881,261.673889 601.093689,265.299133 
z"/>
<path fill="#ffffff" opacity="1.000000" stroke="none" 
	d="
M619.062622,373.438171 
	C614.674438,390.287415 604.439514,400.901184 587.869080,404.875458 
	C584.594360,405.660919 583.318359,407.337891 582.063232,410.061523 
	C571.682739,432.588196 545.722656,441.077332 524.522827,429.064362 
	C519.267456,426.086365 516.433716,422.044952 516.762146,415.732330 
	C517.192505,407.462463 516.209229,399.114258 518.125061,390.866364 
	C520.568298,390.603455 520.666077,392.769501 521.433289,393.985413 
	C528.213196,404.731110 540.105408,405.984161 548.367310,395.417633 
	C571.737488,365.528412 595.995056,336.332672 619.926453,306.882782 
	C623.955566,301.924652 625.401917,301.944458 628.423218,307.562592 
	C637.130981,323.755066 636.152954,339.757904 625.511047,354.492096 
	C621.294373,360.330292 618.471863,365.862640 619.062622,373.438171 
z"/>
<path fill="#ffffff" opacity="1.000000" stroke="none" 
	d="
M510.133087,360.833649 
	C500.737488,347.397644 490.768494,334.787476 482.518341,320.865295 
	C487.800842,321.467346 491.927704,324.235199 496.212219,326.510284 
	C506.658081,332.057190 517.075684,337.670135 527.316650,343.582275 
	C530.317993,345.315002 532.101440,345.081818 534.663086,342.855286 
	C563.206482,318.045990 591.796875,293.289673 620.515259,268.683228 
	C631.392578,259.363342 642.622192,250.454071 653.726257,241.400574 
	C654.789124,240.533981 655.697937,239.022095 657.801697,239.809418 
	C657.406006,242.243103 655.649902,243.870331 654.273376,245.584778 
	C625.379272,281.572266 596.431335,317.516510 567.494812,353.469879 
	C558.721436,364.370758 549.932556,375.259216 541.185303,386.181000 
	C535.847839,392.845215 534.005310,392.968475 528.729858,386.071686 
	C522.454651,377.867920 516.458557,369.450684 510.133087,360.833649 
z"/>
</svg>
